HIERARCHY
ROOT Hips
{
	OFFSET 0.000000 0.000000 0.000000
	CHANNELS 6 Xposition Yposition Zposition Zrotation Yrotation Xrotation 
	JOINT LowerBack
	{
		OFFSET 0.000000 0.000000 0.000000
		CHANNELS 3 Zrotation Yrotation Xrotation
		JOINT Spine
		{
			OFFSET 0.028270 2.035590 -0.193380
			CHANNELS 3 Zrotation Yrotation Xrotation
			JOINT Spine1
			{
				OFFSET 0.056720 2.048850 -0.042750
				CHANNELS 3 Zrotation Yrotation Xrotation
				JOINT Neck
				{
					OFFSET 0.000000 0.000000 0.000000
					CHANNELS 3 Zrotation Yrotation Xrotation
					JOINT Neck1
					{
						OFFSET -0.054170 1.746240 0.172020
						CHANNELS 3 Zrotation Yrotation Xrotation
						JOINT Head
						{
							OFFSET 0.104070 1.761360 -0.123970
							CHANNELS 3 Zrotation Yrotation Xrotation
							End Site
							{
								OFFSET 0.000000 0.000000 0.000000
							}
						}
					}
				}
				JOINT LeftShoulder
				{
					OFFSET 0.000000 0.000000 0.000000
					CHANNELS 3 Zrotation Yrotation Xrotation
					JOINT LeftArm
					{
						OFFSET 3.362410 1.200890 -0.311210
						CHANNELS 3 Zrotation Yrotation Xrotation
						JOINT LeftForeArm
						{
							OFFSET 4.983000 -0.000000 -0.000000
							CHANNELS 3 Zrotation Yrotation Xrotation
							JOINT LeftHand
							{
								OFFSET 3.483560 -0.000000 -0.000000
								CHANNELS 3 Zrotation Yrotation Xrotation
								JOINT LeftFingerBase
								{
									OFFSET 0.000000 0.000000 0.000000
									CHANNELS 3 Zrotation Yrotation Xrotation
									JOINT LeftHandIndex1
									{
										OFFSET 0.715260 -0.000000 -0.000000
										CHANNELS 3 Zrotation Yrotation Xrotation
										End Site
										{
											OFFSET 0.000000 0.000000 0.000000
										}
									}
								}
								JOINT LThumb
								{
									OFFSET 0.000000 0.000000 0.000000
									CHANNELS 3 Zrotation Yrotation Xrotation
									End Site
									{
										OFFSET 0.000000 0.000000 0.000000
									}
								}
							}
						}
					}
				}
				JOINT RightShoulder
				{
					OFFSET 0.000000 0.000000 0.000000
					CHANNELS 3 Zrotation Yrotation Xrotation
					JOINT RightArm
					{
						OFFSET -3.136600 1.374050 -0.404650
						CHANNELS 3 Zrotation Yrotation Xrotation
						JOINT RightForeArm
						{
							OFFSET -5.241900 -0.000000 -0.000000
							CHANNELS 3 Zrotation Yrotation Xrotation
							JOINT RightHand
							{
								OFFSET -3.444170 -0.000000 -0.000000
								CHANNELS 3 Zrotation Yrotation Xrotation
								JOINT RightFingerBase
								{
									OFFSET 0.000000 0.000000 0.000000
									CHANNELS 3 Zrotation Yrotation Xrotation
									JOINT RightHandIndex1
									{
										OFFSET -0.622530 -0.000000 -0.000000
										CHANNELS 3 Zrotation Yrotation Xrotation
										End Site
										{
											OFFSET 0.000000 0.000000 0.000000
										}
									}
								}
								JOINT RThumb
								{
									OFFSET 0.000000 0.000000 0.000000
									CHANNELS 3 Zrotation Yrotation Xrotation
									End Site
									{
										OFFSET 0.000000 0.000000 0.000000
									}
								}
							}
						}
					}
				}
			}
		}
	}
}
}
MOTION
Frames: 9
Frame Time: 0.008333
2.726776 17.470194 0.542507 5.925701 -55.947924 -1.526156 -2.683080 3.378650 -6.164000 -1.289740 3.497045 -3.976874 -3.719021 3.559248 -0.916591 -5.182096 -1.366218 -6.121622 -1.838807 -0.155818 0.439642 0.000000 0.000000 0.000000 8.260694 10.178310 -2.833656 -46.894100 -32.898101 6.262732 179.371757 -59.822133 179.985900 -0.594502 -5.108780 0.039839 0.212279 0.805773 0.000000 0.000000 0.000000 0.000000 0.000000 0.000000 0.000000 -7.960304 4.986008 4.483573 -9.719104 39.422879 -41.584397 -0.450995 -1.773720 -0.093964 -19.010565 1.314887 -0.281735 0.511018 -0.322520 -0.000000 0.000000 0.000000 0.000000 0.000000 0.000000 0.000000 
2.719617 17.480769 0.529993 5.775548 -56.337045 -1.509002 -2.666846 3.333394 -6.255613 -1.288861 3.453948 -4.005518 -3.737560 3.525807 -0.972117 -4.673464 -1.894183 -6.106137 -1.810357 -0.154400 0.447997 0.000000 0.000000 0.000000 8.911558 9.916417 -2.895012 -47.435413 -31.482648 6.486851 179.343962 -59.045314 179.986101 -0.666110 -5.162837 0.044195 0.217864 0.805139 0.000000 0.000000 0.000000 0.000000 0.000000 0.000000 0.000000 -7.732193 4.536117 4.331381 -10.381816 41.883820 -42.990304 -0.622986 -2.095876 -0.098018 -19.790708 1.335971 -0.297233 0.520091 -0.323522 -0.000000 0.000000 0.000000 0.000000 0.000000 0.000000 0.000000 
2.709603 17.487512 0.521979 5.575476 -56.533179 -1.370317 -2.632292 3.190236 -6.362831 -1.229671 3.322357 -4.012174 -3.571809 3.399778 -0.955169 -4.565238 -3.007632 -6.210623 -1.588391 -0.137991 0.430057 0.000000 0.000000 0.000000 9.252813 9.787600 -2.910268 -47.596172 -30.039542 6.510122 179.301934 -58.173090 179.986885 -0.780763 -5.142739 0.050353 0.226265 0.800566 0.000000 0.000000 0.000000 0.000000 0.000000 0.000000 0.000000 -8.717491 3.576120 3.964202 -9.853099 45.153289 -48.493674 -1.072624 -2.469082 -0.097998 -20.193033 4.347442 -0.865120 0.498346 -0.392918 -0.000000 0.000000 0.000000 0.000000 0.000000 0.000000 0.000000 
2.699740 17.491186 0.517648 5.353117 -56.552827 -1.138182 -2.482891 2.991436 -6.456474 -1.111730 3.127832 -4.026641 -3.301562 3.208953 -0.986513 -4.845548 -4.468891 -6.289284 -1.172837 -0.108589 0.426000 0.000000 0.000000 0.000000 9.074855 9.674226 -2.784799 -47.035632 -28.659688 6.207964 179.311382 -57.230386 179.988081 -0.860107 -5.050927 0.053749 0.228649 0.796995 0.000000 0.000000 0.000000 0.000000 0.000000 0.000000 0.000000 -11.162263 2.441017 3.128067 -4.910384 47.746587 -53.737763 -1.862158 1.626984 -0.105659 -18.849352 7.406392 -1.341216 0.406015 -0.491638 -0.000000 0.000000 0.000000 0.000000 0.000000 0.000000 0.000000 
2.691734 17.492969 0.517018 5.081984 -56.459683 -0.813271 -2.269967 2.731938 -6.575409 -1.048733 2.854214 -4.063807 -3.332382 2.950209 -1.050266 -4.628597 -6.030658 -6.353175 -0.961772 -0.093673 0.421267 0.000000 0.000000 0.000000 9.020551 9.606514 -2.589739 -46.011397 -27.357779 5.731540 179.388240 -56.260692 179.990033 -0.930093 -4.896980 0.055573 0.224852 0.796946 0.000000 0.000000 0.000000 0.000000 0.000000 0.000000 0.000000 -12.264854 1.108231 2.174098 -0.019025 49.818743 -49.282265 -2.264383 7.667551 -0.111056 -16.904098 7.304756 -1.188571 0.328224 -0.528160 -0.000000 0.000000 0.000000 0.000000 0.000000 0.000000 0.000000 
2.684500 17.491514 0.519382 4.751843 -56.306821 -0.447002 -2.168224 2.408448 -6.770291 -1.033245 2.517375 -4.140568 -3.480606 2.624197 -1.147476 -3.952639 -6.902162 -6.287185 -0.968220 -0.096063 0.446501 0.000000 0.000000 0.000000 9.369954 9.477789 -2.350681 -45.084501 -25.936467 5.299756 179.505338 -55.336555 179.992945 -1.046904 -4.695177 0.059015 0.220084 0.798256 0.000000 0.000000 0.000000 0.000000 0.000000 0.000000 0.000000 -11.917315 0.307184 1.397036 3.623657 49.794914 -38.803353 -2.355742 16.151242 -0.120376 -16.064496 4.291117 -0.690556 0.286752 -0.512772 -0.000000 0.000000 0.000000 0.000000 0.000000 0.000000 0.000000 
2.678664 17.486827 0.523236 4.412645 -56.152928 -0.086197 -2.119284 2.038772 -7.003178 -1.002391 2.140842 -4.234389 -3.538667 2.247341 -1.248609 -3.291691 -7.054304 -6.109473 -1.053628 -0.105829 0.499741 0.000000 0.000000 0.000000 9.725666 9.308489 -2.067403 -44.135082 -24.417616 4.816577 179.640858 -54.477384 179.995936 -1.155863 -4.469833 0.061282 0.214078 0.798703 0.000000 0.000000 0.000000 0.000000 0.000000 0.000000 0.000000 -11.110072 0.115491 0.848562 5.615228 48.419045 -30.894727 -2.268317 25.511411 -0.126147 -15.435373 1.685738 -0.300991 0.243043 -0.500743 -0.000000 0.000000 0.000000 0.000000 0.000000 0.000000 0.000000 
2.674767 17.479280 0.527174 4.110667 -56.037778 0.241676 -2.060230 1.664521 -7.215013 -0.955854 1.760119 -4.323224 -3.547978 1.860606 -1.341975 -2.763745 -6.896818 -5.897384 -1.153347 -0.117120 0.561646 0.000000 0.000000 0.000000 9.930064 9.157193 -1.766809 -43.016769 -22.960604 4.228794 179.781094 -53.727948 179.998350 -1.211612 -4.242496 0.060771 0.205517 0.797728 0.000000 0.000000 0.000000 0.000000 0.000000 0.000000 0.000000 -10.282567 0.189596 0.420234 6.727903 46.720171 -26.193204 -2.087438 34.601554 -0.125430 -14.595804 0.319342 -0.106630 0.194375 -0.502819 -0.000000 0.000000 0.000000 0.000000 0.000000 0.000000 0.000000 
2.672632 17.469258 0.530148 3.860791 -55.995007 0.523439 -1.993667 1.317363 -7.383388 -0.909496 1.404692 -4.395232 -3.557995 1.497052 -1.409010 -2.325954 -6.711703 -5.700287 -1.249598 -0.127842 0.619032 0.000000 0.000000 0.000000 10.022951 9.055814 -1.480950 -41.761927 -21.673504 3.564929 179.912112 -53.131334 179.999948 -1.205864 -4.029031 0.057468 0.194698 0.795369 0.000000 0.000000 0.000000 0.000000 0.000000 0.000000 0.000000 -9.504255 0.278388 0.059067 7.452427 45.045727 -23.392128 -1.848099 43.109403 -0.121203 -13.695209 -0.236113 -0.033203 0.149796 -0.511099 -0.000000 0.000000 0.000000 0.000000 0.000000 0.000000 0.000000 
